.
House of Flying Daggers 2004 BluRayRip 720p 5.1ch AVCHD h264 AAC subs 2hrs .mp4
(Shi mian mai fu)

I sought a reasonably-sized 720p AVCHD Compliant (BluRay/PS3/XBOX-ready) torrent of 'House of Flying Daggers' movie, but no luck. So, I created one, for our media center and to share.

Details, Ratings, Reviews     :  http://www.imdb.com/title/tt0385004/
Picture of Cover              :  http://bayimg.com/image/eaekdaaca.jpg  *
Picture of Disc               :  http://bayimg.com/image/eaekfaaca.jpg  *
~ RipMinion ~  Rare Torrents  :  http://1337x.org/user_51839
~ RipMinion ~  Rare Torrents  :  http://j.mp/hKpx8
Azureus/Vuze Magnet Link      :  magnet:?xt=urn:btih:QGXYL7KSOXG4NQMBQD5PEJSTTOLIU6EP
*note: cover art pictures may not necessarily be precisely indicative.

| NOTICE: News is, TPB has sold out. So, I bid thee farewell...
| Soon they will begin to obey corporate take down notices.
| Thus, this Torrent has official New Home(s):
|  http://1337x.org/user_51839  or  http://j.mp/hKpx8
| Simply click and go! There's no bs to deal with.
| Please update your bookmarks/links before the inevitable.

Encoding 'inspired by secretmyth & newartriot' for an Optimal blend of Compression, Quality, and AVCHD Compliancy (BluRay/PS3/XBOX-ready).

General
Complete name                 :  House of Flying Daggers 2004 BluRayRip 720p 5.1ch AVCHD h264 AAC subs 2hrs .mp4
Format                        :  MPEG-4
Format profile                :  Base Media
Codec ID                      :  isom
File size                     :  1.75 GiB
Duration                      :  1h 59m
Overall bit rate              :  2 105 Kbps

Video
AVCHD Compliant               :  Yes, BluRay/PS3/XBOX ready; no re-encode!
Format                        :  AVC (h264)
Format/Info                   :  Advanced Video Codec
Format profile                :  High@L3.1
Format settings, CABAC        :  Yes
Format settings, ReFrames     :  3 frames
Codec ID                      :  avc1
Codec ID/Info                 :  Advanced Video Coding
Bit rate mode                 :  Variable
Bit rate                      :  1 704 Kbps (-crf 26)
Maximum bit rate              :  8 410 Kbps
Width                         :  1 280 pixels
Height                        :  720 pixels (true 720p)
Display aspect ratio          :  16/9
Frame rate mode               :  Constant
Frame rate                    :  23.976 fps
Standard                      :  NTSC
Resolution                    :  24 bits
Colorimetry                   :  4:2:0
Scan type                     :  Progressive
Bits/(Pixel*Frame)            :  0.077
Stream size                   :  1.42 GiB (81%)
Writing library               :  x264 core 75 r1259M dd026f2
Encoding settings             :  cabac=1 / ref=3 / deblock=1:-1:0 / analyse=0x3:0x133 / me=umh / subme=9 / psy=1 / psy_rd=1.0:0.2 / mixed_ref=1 / me_range=64 / chroma_me=1 / trellis=2 / 8x8dct=1 / cqm=0 / deadzone=21,11 / chroma_qp_offset=-3 / threads=6 / nr=0 / decimate=1 / mbaff=0 / bframes=3 / b_pyramid=0 / b_adapt=2 / b_bias=0 / direct=3 / wpredb=1 / keyint=240 / keyint_min=24 / scenecut=40 / rc_lookahead=40 / rc=crf / mbtree=1 / crf=26.0 / qcomp=0.60 / qpmin=10 / qpmax=51 / qpstep=4 / vbv_maxrate=13000 / vbv_bufsize=13000 / ip_ratio=1.40 / aq=1:1.00

Two Audio Tracks              :  #1: Chinese  +  #2: English dub
Format                        :  AAC, Nero AAC Encoder v1.3.3.0
Format/Info                   :  Advanced Audio Codec
Format version                :  Version 4
Format profile                :  LC (AAC-HE{v1} extension)
Format settings, SBR          :  Yes
Format settings, PS           :  No
Codec ID                      :  40
Bit rate mode                 :  Variable
Bit rate                      :  199 Kbps (-he -q 0.25 = ~transparent)
Maximum bit rate              :  233 Kbps
Channel(s)                    :  6 channels (5.1 Surround Sound)
Channel positions             :  Front: L C R, Rear: L R, LFE
Sampling rate                 :  48.0 KHz
Resolution                    :  16 bits
Stream size                   :  169 MiB (9%)  +  169 MiB (9%)

Subtitles                     :  English
Format                        :  Timed text
Codec ID                      :  tx3g
Bit rate                      :  22 bps (vbr)
Stream size                   :  19.5 KiB (0%)
Language                      :  English

Encode process details / FAQ  :  http://ripminion.pastebay.com/52245
Subtitle Search Engine 1      :  http://www.opensubtitles.org/
Subtitle Search Engine 2      :  http://subscene.com/filmsearch.aspx
Subtitle Search Engine 3      :  http://www.subtitlesource.org/
More rare improved-cut movies :  http://fanedit.org/  then  http://fanedit.info/
~ RipMinion ~  Rare Torrents  :  http://1337x.org/user_51839
~ RipMinion ~  Rare Torrents  :  http://j.mp/hKpx8


Playback issues? Here's the easy fix:  http://www.videolan.org/vlc/

For fast & easy Convert-to-AVCHD, Burn, and Play on BluRay/PS3/XBOX from a variety of disc types (DVD-R, DVD+R_DL, BD-R, BD-RE, etc.), I recommend multiAVCHD freeware {link follows}.  It can auto-generate a slick customizable 'iTunes-style' slide menu for multiple movies and burn all to a single disc!  Or, if desired, it can span across several discs.  100% AVCHD Compliant Video, such as this, is quickly made ready (Non-compliant video is automatically re-encoded thus reducing quality, wasting time, and bloating file size):

  http://www.videohelp.com/tools/multiAVCHD  (Note: newest version broke AAC-HE audio, so...)
  http://www.videohelp.com/tools/YAMB  (1. extract AAC audio track(s) to .aac files)
  http://www.videohelp.com/tools/dBpowerAMP  (2. dbPowerAMP is free forever, only a few features expire)
  http://www.dbpoweramp.com/codec-central-m4a.htm  (3. convert .aac to .wav, replace audio in multiAVCHD)
  http://ImgBurn.com/


For fast & easy Convert-to-DVD, Burn, and Play on any DVD Player from DVD-R or DVD+R_DL media, I recommend 'ConvertXtoDVD' software; either buy or search for the Torrent.


Please feel free to post constructive feedback, questions, comments, etc.

I really appreciate you helping seed at any capacity you can spare.

Enjoy the show,
~ RipMinion ~

.